<mxfile host="app.diagrams.net" modified="2022-06-03T19:40:55.904Z" agent="5.0 (Windows)" etag="qcUactLMLz3Qim4RtbO6" version="18.1.1" type="github">
  <diagram id="kgpKYQtTHZ0yAKxKKP6v" name="Page-1">
    <mxGraphModel dx="868" dy="478" grid="1" gridSize="10" guides="1" tooltips="1" connect="1" arrows="1" fold="1" page="1" pageScale="1" pageWidth="850" pageHeight="1100" math="0" shadow="0">
      <root>
        <mxCell id="0" />
        <mxCell id="1" parent="0" />
        <mxCell id="IGSi7vzit7BUhH5rT9WO-24" style="edgeStyle=orthogonalEdgeStyle;rounded=0;orthogonalLoop=1;jettySize=auto;html=1;entryX=0.5;entryY=0;entryDx=0;entryDy=0;" edge="1" parent="1" source="IGSi7vzit7BUhH5rT9WO-1" target="IGSi7vzit7BUhH5rT9WO-4">
          <mxGeometry relative="1" as="geometry" />
        </mxCell>
        <mxCell id="IGSi7vzit7BUhH5rT9WO-1" value="Start" style="ellipse;whiteSpace=wrap;html=1;" vertex="1" parent="1">
          <mxGeometry x="340" y="130" width="110" height="50" as="geometry" />
        </mxCell>
        <mxCell id="IGSi7vzit7BUhH5rT9WO-16" style="edgeStyle=orthogonalEdgeStyle;rounded=0;orthogonalLoop=1;jettySize=auto;html=1;entryX=0.5;entryY=0;entryDx=0;entryDy=0;" edge="1" parent="1" source="IGSi7vzit7BUhH5rT9WO-4" target="IGSi7vzit7BUhH5rT9WO-5">
          <mxGeometry relative="1" as="geometry" />
        </mxCell>
        <mxCell id="IGSi7vzit7BUhH5rT9WO-4" value="Start the timer of 50 seconds" style="rounded=0;whiteSpace=wrap;html=1;" vertex="1" parent="1">
          <mxGeometry x="335" y="220" width="120" height="60" as="geometry" />
        </mxCell>
        <mxCell id="IGSi7vzit7BUhH5rT9WO-11" style="edgeStyle=orthogonalEdgeStyle;rounded=0;orthogonalLoop=1;jettySize=auto;html=1;entryX=1;entryY=0.5;entryDx=0;entryDy=0;" edge="1" parent="1" source="IGSi7vzit7BUhH5rT9WO-5" target="IGSi7vzit7BUhH5rT9WO-26">
          <mxGeometry relative="1" as="geometry">
            <mxPoint x="450" y="735" as="targetPoint" />
            <Array as="points">
              <mxPoint x="600" y="385" />
              <mxPoint x="600" y="735" />
            </Array>
          </mxGeometry>
        </mxCell>
        <mxCell id="IGSi7vzit7BUhH5rT9WO-12" style="edgeStyle=orthogonalEdgeStyle;rounded=0;orthogonalLoop=1;jettySize=auto;html=1;entryX=0.5;entryY=0;entryDx=0;entryDy=0;" edge="1" parent="1" source="IGSi7vzit7BUhH5rT9WO-5" target="IGSi7vzit7BUhH5rT9WO-8">
          <mxGeometry relative="1" as="geometry" />
        </mxCell>
        <mxCell id="IGSi7vzit7BUhH5rT9WO-5" value="&lt;div&gt;is the Request-to-Walk&lt;/div&gt;&lt;div&gt;&amp;nbsp;button pressed OR have the car sensor detected more than 6 cars?&lt;br&gt;&lt;/div&gt;" style="rhombus;whiteSpace=wrap;html=1;" vertex="1" parent="1">
          <mxGeometry x="271.25" y="320" width="247.5" height="130" as="geometry" />
        </mxCell>
        <mxCell id="IGSi7vzit7BUhH5rT9WO-15" style="edgeStyle=orthogonalEdgeStyle;rounded=0;orthogonalLoop=1;jettySize=auto;html=1;entryX=0.5;entryY=0;entryDx=0;entryDy=0;" edge="1" parent="1" source="IGSi7vzit7BUhH5rT9WO-7" target="IGSi7vzit7BUhH5rT9WO-26">
          <mxGeometry relative="1" as="geometry">
            <mxPoint x="395" y="710" as="targetPoint" />
          </mxGeometry>
        </mxCell>
        <mxCell id="IGSi7vzit7BUhH5rT9WO-7" value="Set the timer to 20 seconds" style="rounded=0;whiteSpace=wrap;html=1;" vertex="1" parent="1">
          <mxGeometry x="335" y="610" width="120" height="60" as="geometry" />
        </mxCell>
        <mxCell id="IGSi7vzit7BUhH5rT9WO-14" style="edgeStyle=orthogonalEdgeStyle;rounded=0;orthogonalLoop=1;jettySize=auto;html=1;entryX=0.5;entryY=0;entryDx=0;entryDy=0;" edge="1" parent="1" source="IGSi7vzit7BUhH5rT9WO-8" target="IGSi7vzit7BUhH5rT9WO-7">
          <mxGeometry relative="1" as="geometry" />
        </mxCell>
        <mxCell id="IGSi7vzit7BUhH5rT9WO-23" style="edgeStyle=orthogonalEdgeStyle;rounded=0;orthogonalLoop=1;jettySize=auto;html=1;entryX=0;entryY=0.5;entryDx=0;entryDy=0;" edge="1" parent="1" source="IGSi7vzit7BUhH5rT9WO-8" target="IGSi7vzit7BUhH5rT9WO-26">
          <mxGeometry relative="1" as="geometry">
            <mxPoint x="340" y="735" as="targetPoint" />
            <Array as="points">
              <mxPoint x="200" y="530" />
              <mxPoint x="200" y="735" />
              <mxPoint x="335" y="735" />
            </Array>
          </mxGeometry>
        </mxCell>
        <mxCell id="IGSi7vzit7BUhH5rT9WO-8" value="&lt;div&gt;is the timer more than&lt;/div&gt;&lt;div&gt;20 seconds?&lt;/div&gt;" style="rhombus;whiteSpace=wrap;html=1;" vertex="1" parent="1">
          <mxGeometry x="292.5" y="490" width="205" height="80" as="geometry" />
        </mxCell>
        <mxCell id="IGSi7vzit7BUhH5rT9WO-19" value="No" style="text;html=1;align=center;verticalAlign=middle;resizable=0;points=[];autosize=1;strokeColor=none;fillColor=none;" vertex="1" parent="1">
          <mxGeometry x="545" y="360" width="30" height="20" as="geometry" />
        </mxCell>
        <mxCell id="IGSi7vzit7BUhH5rT9WO-20" value="No" style="text;html=1;align=center;verticalAlign=middle;resizable=0;points=[];autosize=1;strokeColor=none;fillColor=none;" vertex="1" parent="1">
          <mxGeometry x="235" y="504" width="30" height="20" as="geometry" />
        </mxCell>
        <mxCell id="IGSi7vzit7BUhH5rT9WO-21" value="Yes" style="text;html=1;align=center;verticalAlign=middle;resizable=0;points=[];autosize=1;strokeColor=none;fillColor=none;" vertex="1" parent="1">
          <mxGeometry x="400" y="460" width="40" height="20" as="geometry" />
        </mxCell>
        <mxCell id="IGSi7vzit7BUhH5rT9WO-22" value="Yes" style="text;html=1;align=center;verticalAlign=middle;resizable=0;points=[];autosize=1;strokeColor=none;fillColor=none;" vertex="1" parent="1">
          <mxGeometry x="400" y="580" width="40" height="20" as="geometry" />
        </mxCell>
        <mxCell id="IGSi7vzit7BUhH5rT9WO-28" style="edgeStyle=orthogonalEdgeStyle;rounded=0;orthogonalLoop=1;jettySize=auto;html=1;entryX=0.5;entryY=0;entryDx=0;entryDy=0;" edge="1" parent="1" source="IGSi7vzit7BUhH5rT9WO-26" target="IGSi7vzit7BUhH5rT9WO-27">
          <mxGeometry relative="1" as="geometry" />
        </mxCell>
        <mxCell id="IGSi7vzit7BUhH5rT9WO-26" value="&lt;div&gt;Wait till the &lt;br&gt;&lt;/div&gt;&lt;div&gt;timer is 0&lt;/div&gt;" style="rounded=0;whiteSpace=wrap;html=1;" vertex="1" parent="1">
          <mxGeometry x="335" y="710" width="120" height="50" as="geometry" />
        </mxCell>
        <mxCell id="IGSi7vzit7BUhH5rT9WO-27" value="End" style="ellipse;whiteSpace=wrap;html=1;" vertex="1" parent="1">
          <mxGeometry x="340" y="800" width="110" height="50" as="geometry" />
        </mxCell>
        <mxCell id="IGSi7vzit7BUhH5rT9WO-29" value="&lt;font style=&quot;font-size: 14px;&quot;&gt;Jeel Satishkumar Patel&lt;br&gt;Student ID: 167984210&lt;br&gt;&lt;/font&gt;&lt;div&gt;&lt;font style=&quot;font-size: 14px;&quot;&gt;Email: jpatel363@myseneca.ca&lt;br&gt;&lt;/font&gt;&lt;/div&gt;&lt;div&gt;&lt;font style=&quot;font-size: 14px;&quot;&gt;Section: NEE&lt;/font&gt;&lt;/div&gt;&lt;div&gt;&lt;font style=&quot;font-size: 14px;&quot;&gt;Group: B5&lt;/font&gt;&lt;br&gt;&lt;/div&gt;" style="text;html=1;align=left;verticalAlign=middle;resizable=0;points=[];autosize=1;strokeColor=none;fillColor=none;" vertex="1" parent="1">
          <mxGeometry x="80" y="80" width="210" height="80" as="geometry" />
        </mxCell>
      </root>
    </mxGraphModel>
  </diagram>
</mxfile>
